<svg width="459" height="117" viewBox="0 0 459 117" fill="none" xmlns="http://www.w3.org/2000/svg">
<g clip-path="url(#clip0_3828_227)">
<path d="M0 37.9434C0 23.0629 12.0629 11 26.9433 11H75.0564C89.9366 11 102 23.0629 102 37.9434V86.0563C102 100.937 89.9366 113 75.0564 113H26.9433C12.0629 113 0 100.937 0 86.0563V37.9434Z" fill="#5152F9"/>
<path d="M66.2543 89.9033V79.9996C65.9067 81.0423 64.908 82.4757 63.2575 84.3C61.6503 86.1243 59.4351 87.7753 56.6116 89.2521C53.8317 90.7288 50.5305 91.4672 46.708 91.4672C41.7129 91.4672 37.2172 90.2725 33.221 87.8836C29.2249 85.4947 26.0758 82.1715 23.7735 77.915C21.4713 73.658 20.3203 68.7497 20.3203 63.1897C20.3203 57.6303 21.4713 52.7219 23.7735 48.465C26.0758 44.2083 29.2249 40.8855 33.221 38.4964C37.2172 36.064 41.7129 34.8477 46.708 34.8477C50.4435 34.8477 53.6796 35.4993 56.4161 36.8024C59.1526 38.1055 61.346 39.6039 62.9965 41.2981C64.6909 42.9921 65.7335 44.4689 66.1244 45.7286V36.4113H79.9369V89.9033H66.2543ZM34.0679 63.1897C34.0679 66.6218 34.8281 69.6186 36.3485 72.1812C37.8687 74.7444 39.845 76.7203 42.2776 78.1104C44.7535 79.5006 47.403 80.1956 50.2265 80.1956C53.267 80.1956 55.96 79.4789 58.3054 78.0455C60.6943 76.612 62.5624 74.6356 63.9087 72.1163C65.2988 69.5536 65.9939 66.5779 65.9939 63.1897C65.9939 59.8021 65.2988 56.8483 63.9087 54.329C62.5624 51.7662 60.6943 49.7681 58.3054 48.3347C55.96 46.8579 53.267 46.1194 50.2265 46.1194C47.403 46.1194 44.7535 46.8361 42.2776 48.2697C39.845 49.6596 37.8687 51.6359 36.3485 54.1987C34.8281 56.7615 34.0679 59.7582 34.0679 63.1897Z" fill="white"/>
<path d="M101.997 36.0176H92.375V89.9043H101.997V36.0176Z" fill="white"/>
<path d="M92.297 62.8457H80.9023V98.7388H92.297V62.8457Z" fill="#5152F9"/>
</g>
<path d="M124.318 34.6691C127.931 34.6691 131.435 35.409 134.831 36.889C138.225 38.3689 141.011 40.741 143.188 44.0057C145.407 47.2266 146.517 51.427 146.517 56.6066V89.8393H132.48V59.1531C132.48 54.3215 131.326 50.774 129.02 48.5107C126.756 46.2038 123.818 45.0503 120.206 45.0503C117.812 45.0503 115.526 45.7249 113.35 47.0743C111.174 48.4235 109.389 50.2518 107.996 52.5587C106.647 54.8655 105.972 57.5209 105.972 60.5239V89.8393H92V36.236H105.972V45.2461C106.364 43.7663 107.408 42.221 109.106 40.6105C110.847 38.9566 113.045 37.5636 115.7 36.4319C118.355 35.2567 121.228 34.6691 124.318 34.6691ZM175.24 34.6691C178.243 34.6691 181.029 34.952 183.597 35.5178C186.165 36.0836 188.363 36.7585 190.192 37.5418C192.019 38.3253 193.282 38.9783 193.978 39.5006L188.886 48.119C188.015 47.379 186.448 46.5301 184.185 45.5726C181.965 44.615 179.462 44.1362 176.676 44.1362C173.89 44.1362 171.54 44.6369 169.625 45.638C167.71 46.6391 166.752 48.1406 166.752 50.143C166.752 52.1016 167.753 53.6685 169.756 54.8437C171.801 56.019 174.565 56.9983 178.047 57.7818C180.92 58.4349 183.662 59.3489 186.274 60.5239C188.885 61.6554 191.018 63.2883 192.672 65.4206C194.37 67.5102 195.219 70.3179 195.219 73.8433C195.219 77.1946 194.5 80.0024 193.064 82.2655C191.671 84.4858 189.8 86.2705 187.449 87.6195C185.099 88.9686 182.487 89.9266 179.614 90.4924C176.785 91.1016 173.934 91.4064 171.062 91.4064C167.536 91.4064 164.38 91.0582 161.595 90.3616C158.852 89.6651 156.567 88.8601 154.739 87.9461C152.911 86.9887 151.605 86.1831 150.821 85.53L155.914 75.8672C157.046 76.9554 158.895 78.1087 161.464 79.3276C164.032 80.5025 166.905 81.0905 170.082 81.0905C173.477 81.0905 176.197 80.4374 178.243 79.1317C180.289 77.8261 181.312 76.0848 181.312 73.9084C181.312 72.2979 180.811 70.9922 179.81 69.9914C178.853 68.99 177.525 68.1844 175.828 67.5753C174.13 66.9661 172.236 66.422 170.147 65.943C168.189 65.4646 166.208 64.8549 164.206 64.1149C162.247 63.3317 160.441 62.3303 158.787 61.1119C157.133 59.8496 155.806 58.2825 154.804 56.4107C153.803 54.539 153.303 52.3409 153.303 49.8165C153.303 46.5954 154.325 43.8533 156.371 41.5899C158.417 39.3264 161.116 37.6072 164.467 36.4319C167.819 35.2567 171.41 34.6691 175.24 34.6691ZM238.198 52.4933L224.943 89.8393H211.231L195.693 36.236H210.514L219.85 74.7574L232.973 37.2807H243.486L256.478 74.7574L265.945 36.236H280.766L265.292 89.8393H251.582L238.198 52.4933ZM293.444 66.3347C293.531 69.1641 294.206 71.7104 295.469 73.9735C296.73 76.2372 298.582 78.0219 301.018 79.3276C303.5 80.5899 306.526 81.2207 310.093 81.2207C313.185 81.2207 315.841 80.8074 318.06 79.9807C320.322 79.11 322.195 78.087 323.674 76.912C325.155 75.6931 326.243 74.5616 326.939 73.5168L333.141 81.9389C331.791 83.7676 330.094 85.3998 328.048 86.8362C326.003 88.2727 323.456 89.3825 320.409 90.1658C317.406 90.9931 313.684 91.4064 309.245 91.4064C303.413 91.4064 298.341 90.2092 294.033 87.8154C289.724 85.4215 286.372 82.048 283.977 77.6953C281.628 73.3427 280.452 68.2501 280.452 62.4176C280.452 57.1943 281.539 52.4933 283.717 48.3148C285.892 44.0926 289.049 40.7628 293.184 38.3254C297.363 35.8879 302.368 34.6691 308.199 34.6691C313.642 34.6691 318.365 35.7574 322.368 37.9337C326.372 40.11 329.463 43.2439 331.639 47.3354C333.86 51.3834 334.969 56.2801 334.969 62.026C334.969 62.3737 334.948 63.0919 334.904 64.1806C334.904 65.2682 334.861 65.9864 334.773 66.3347H293.444ZM321.911 56.1495C321.867 54.7568 321.389 53.168 320.475 51.3834C319.605 49.5987 318.189 48.0536 316.232 46.7478C314.272 45.3984 311.661 44.7238 308.396 44.7238C305.045 44.7238 302.325 45.3766 300.235 46.6824C298.146 47.9449 296.601 49.4682 295.599 51.2529C294.597 52.9939 294.012 54.6262 293.836 56.1495H321.911ZM353.566 89.8393H339.66V36.236H353.566V45.1809H353.24C353.545 44.0926 354.372 42.7434 355.722 41.1329C357.115 39.4788 359.03 37.9989 361.468 36.693C363.905 35.3438 366.842 34.6691 370.281 34.6691C372.763 34.6691 374.982 35.0173 376.942 35.7137C376.942 35.7137 374.498 42.7826 372.306 47.27C373.872 47.923 371.739 46.5736 372.306 47.27C370.782 46.5736 368.888 46.2255 366.624 46.2255C363.795 46.2255 361.402 47.0525 359.443 48.7064C357.527 50.3605 356.07 52.3409 355.068 54.648C354.067 56.9549 353.566 59.1097 353.566 61.1119V89.8393ZM395.583 89.8393H381.545V0H395.583V89.8393ZM427.978 77.3688L444.953 36.236H458.86L422.428 117H408.325L420.6 89.8393L398.401 36.236H412.504L427.978 77.3688Z" fill="#111111"/>
<path d="M107 36H92V90H107V36Z" fill="white"/>
<defs>
<clipPath id="clip0_3828_227">
<rect y="11" width="102" height="102" rx="42.08" fill="white"/>
</clipPath>
</defs>
</svg>
